<?xml version="1.0" standalone="no"?>
<!DOCTYPE svg PUBLIC "-//W3C//DTD SVG 20010904//EN"
 "http://www.w3.org/TR/2001/REC-SVG-20010904/DTD/svg10.dtd">
<svg version="1.0" xmlns="http://www.w3.org/2000/svg"
 width="1920.000000pt" height="1080.000000pt" viewBox="0 0 1920.000000 1080.000000"
 preserveAspectRatio="xMidYMid meet">

<g transform="translate(0.000000,1080.000000) scale(0.100000,-0.100000)"
fill="#000000" stroke="none">
<path d="M12597 10617 c-51 -158 -142 -409 -182 -502 -8 -16 -41 -95 -75 -175
-65 -151 -214 -461 -273 -565 -39 -69 -75 -134 -106 -188 -79 -140 -313 -505
-352 -551 -9 -10 -60 -80 -158 -216 -22 -30 -50 -66 -63 -80 -13 -14 -36 -43
-53 -65 -54 -72 -181 -221 -325 -380 -100 -110 -434 -439 -555 -545 -158 -138
-336 -287 -460 -384 -55 -42 -107 -83 -115 -89 -8 -7 -37 -28 -65 -47 -27 -19
-52 -38 -55 -41 -22 -25 -244 -176 -279 -189 -24 -10 -56 -31 -70 -47 -14 -17
-93 -75 -176 -129 -176 -115 -363 -252 -465 -339 -90 -77 -145 -124 -172 -145
-15 -12 -40 -33 -56 -48 -147 -140 -172 -166 -165 -171 4 -4 12 -11 17 -16 5
-6 6 -1 2 11 -5 16 1 27 25 45 18 13 46 39 63 57 30 31 55 44 40 21 -4 -8 0
-8 15 0 21 12 21 10 21 -74 l0 -85 -40 0 c-40 0 -40 0 -40 -39 0 -22 -5 -41
-12 -44 -8 -2 -9 -8 -4 -13 5 -5 11 -4 13 4 3 8 30 12 84 12 l79 0 0 -40 0
-40 40 0 40 0 0 -80 0 -80 40 0 40 0 0 -80 0 -80 -35 0 c-28 0 -44 -8 -73 -37
l-37 -38 113 -3 112 -3 0 -39 c0 -30 4 -40 16 -40 13 0 15 -13 12 -84 -3 -72
-1 -84 13 -81 22 4 43 -10 35 -24 -4 -6 -23 -11 -42 -11 -24 0 -34 -4 -34 -16
0 -20 -39 -53 -62 -54 -15 0 -18 -9 -18 -52 0 -48 3 -54 27 -65 35 -17 53 -16
97 2 32 14 36 14 36 0 0 -11 11 -15 40 -15 36 0 40 -2 40 -25 0 -22 4 -25 40
-25 l40 0 0 -55 0 -55 40 0 40 0 0 -80 0 -80 40 0 40 0 0 -90 0 -90 -40 0
c-22 0 -40 -4 -40 -10 0 -5 -7 -10 -15 -10 -21 0 -65 -22 -65 -33 0 -5 -18
-27 -40 -49 -28 -29 -40 -49 -41 -72 -3 -70 3 -152 12 -160 5 -6 9 -18 9 -28
0 -10 5 -18 10 -18 6 0 21 -10 33 -23 57 -59 67 -61 252 -55 18 0 36 10 48 24
24 31 37 30 37 -1 0 -22 4 -25 40 -25 l40 0 0 -85 0 -85 40 0 c29 0 40 -4 40
-15 0 -11 -11 -15 -40 -15 -28 0 -40 4 -40 14 0 16 -21 26 -56 26 -15 0 -24
-6 -24 -15 0 -8 6 -15 14 -15 16 0 30 -43 16 -48 -19 -7 -11 -71 12 -94 17
-17 32 -21 70 -19 28 1 48 -2 48 -9 0 -5 18 -10 40 -10 l40 0 0 -55 0 -55 40
0 c31 0 40 4 40 17 0 14 2 15 13 4 10 -11 10 -14 0 -18 -8 -3 -13 -24 -13 -54
l0 -49 -40 0 c-33 0 -40 -3 -40 -20 0 -17 7 -20 40 -20 29 0 40 -4 40 -15 0
-11 11 -15 40 -15 33 0 40 -3 40 -20 0 -17 -7 -20 -40 -20 -32 0 -40 -4 -40
-18 0 -9 -10 -23 -22 -31 -19 -12 -23 -11 -33 3 -15 20 -25 21 -25 1 0 -11
-12 -15 -42 -16 -40 -1 -38 -2 17 -10 33 -5 65 -16 71 -24 6 -8 16 -15 23 -15
6 0 11 -11 11 -25 0 -24 2 -25 65 -25 l65 0 0 65 c0 36 4 65 9 65 12 0 21
-106 21 -261 0 -117 -2 -139 -15 -139 -11 0 -15 -11 -15 -40 0 -29 4 -40 15
-40 12 0 15 -13 15 -55 l0 -55 40 0 c36 0 40 -2 40 -25 0 -15 -6 -25 -14 -25
-10 0 -16 -21 -21 -76 -4 -41 -4 -78 -1 -81 3 -4 6 12 6 35 0 31 4 42 15 42
11 0 15 11 15 40 0 38 1 40 31 40 l31 0 -7 -80 c-6 -70 -5 -80 9 -80 12 0 16
-10 16 -40 l0 -40 80 0 80 0 0 -80 0 -80 40 0 40 0 0 -80 0 -80 40 0 40 0 0
-80 0 -80 40 0 40 0 0 -120 0 -120 40 0 40 0 0 -80 0 -80 40 0 40 0 0 -80 0
-80 40 0 40 0 0 -80 0 -80 40 0 40 0 0 -80 0 -80 40 0 40 0 0 -120 0 -120 40
0 40 0 0 -80 0 -80 40 0 40 0 0 -80 0 -80 40 0 40 0 0 -80 0 -80 4040 0 4040
0 0 5400 0 5400 -3272 0 -3273 0 -58 -183z m-3817 -4577 c0 -5 -8 -10 -17 -10
-15 0 -16 2 -3 10 19 12 20 12 20 0z m-94 -75 c-3 -8 -14 -15 -25 -15 -10 0
-21 -7 -25 -15 -3 -8 -13 -14 -23 -14 -17 1 -17 2 0 6 9 2 17 9 17 14 0 5 11
14 25 19 14 5 25 17 26 27 0 11 3 13 6 5 3 -7 2 -19 -1 -27z m31 -12 c-3 -10
-5 -4 -5 12 0 17 2 24 5 18 2 -7 2 -21 0 -30z m-24 -30 c-7 -2 -21 -2 -30 0
-10 3 -4 5 12 5 17 0 24 -2 18 -5z m-143 -58 c-7 -9 -15 -13 -19 -10 -3 3 1
10 9 15 21 14 24 12 10 -5z m490 -1105 l0 -40 -40 0 c-34 0 -40 3 -40 20 0 11
-6 23 -14 26 -8 3 -17 12 -20 20 -4 11 7 14 54 14 l60 0 0 -40z m320 -620 c0
-11 -7 -20 -15 -20 -15 0 -21 21 -8 33 12 13 23 7 23 -13z m137 -282 c-2 -13
-4 -3 -4 22 0 25 2 35 4 23 2 -13 2 -33 0 -45z m-7 -78 c0 -11 -7 -20 -15 -20
-18 0 -19 12 -3 28 16 16 18 15 18 -8z m147 -402 c-2 -13 -4 -3 -4 22 0 25 2
35 4 23 2 -13 2 -33 0 -45z m618 -1208 c3 -5 1 -10 -4 -10 -6 0 -11 5 -11 10
0 6 2 10 4 10 3 0 8 -4 11 -10z"/>
<path d="M6828 10761 c-47 -10 -101 -51 -136 -104 -23 -34 -27 -51 -27 -106 1
-98 40 -159 129 -202 88 -43 204 -5 264 86 32 47 34 54 30 122 -3 61 -8 78
-34 114 -50 69 -144 106 -226 90z"/>
<path d="M5931 10483 c-96 -20 -167 -137 -141 -234 16 -59 46 -95 104 -124 59
-30 97 -31 151 -6 79 37 119 96 118 177 -1 120 -114 211 -232 187z"/>
<path d="M4854 10265 c-85 -67 -60 -184 45 -216 99 -30 188 90 135 181 -37 62
-124 79 -180 35z"/>
<path d="M5253 10020 c-50 -30 -66 -62 -61 -120 10 -106 120 -140 211 -67 11
9 20 34 23 63 6 61 -20 108 -71 130 -46 19 -64 18 -102 -6z"/>
<path d="M3675 10011 c-48 -22 -69 -44 -90 -94 -28 -66 -13 -159 33 -210 66
-73 198 -77 276 -8 73 65 73 216 -1 283 -53 48 -149 61 -218 29z"/>
<path d="M3482 9630 c-24 -23 -30 -72 -9 -87 6 -6 24 -13 38 -16 52 -13 91 59
53 97 -8 9 -19 16 -24 16 -5 0 -15 2 -22 5 -8 3 -24 -4 -36 -15z"/>
<path d="M4841 9628 c-24 -12 -56 -39 -72 -61 -24 -33 -29 -50 -29 -99 0 -74
18 -116 65 -155 76 -63 168 -62 245 4 69 59 89 146 51 221 -51 100 -161 138
-260 90z"/>
<path d="M2501 9419 c-69 -42 -97 -101 -86 -177 9 -57 61 -114 122 -132 83
-25 180 25 202 106 15 53 14 75 -5 119 -39 95 -150 135 -233 84z"/>
<path d="M4184 8891 c-30 -18 -54 -64 -54 -102 0 -39 33 -87 71 -104 75 -34
149 0 170 78 28 106 -91 187 -187 128z"/>
<path d="M1785 8852 c-36 -12 -63 -37 -80 -74 -16 -32 -16 -41 -4 -79 20 -61
67 -92 132 -86 74 7 116 65 104 144 -7 43 -31 71 -74 89 -35 15 -46 16 -78 6z"/>
<path d="M2821 8394 c-12 -15 -21 -34 -21 -43 0 -22 33 -57 61 -66 31 -10 73
24 77 63 7 66 -76 98 -117 46z"/>
<path d="M1993 8373 c-16 -33 -16 -53 0 -74 18 -23 46 -30 70 -17 29 14 37 28
37 58 -1 38 -23 60 -61 60 -27 0 -37 -6 -46 -27z m94 -45 c-3 -8 -6 -5 -6 6
-1 11 2 17 5 13 3 -3 4 -12 1 -19z"/>
<path d="M1092 8305 c-43 -36 -56 -73 -43 -123 16 -59 60 -92 122 -92 41 0 54
5 82 31 29 28 32 36 32 91 0 55 -3 62 -33 89 -44 39 -116 41 -160 4z"/>
<path d="M3907 8236 c-140 -76 -120 -275 32 -316 50 -13 84 -5 137 31 47 32
64 69 64 136 0 55 -20 94 -66 129 -43 34 -124 43 -167 20z"/>
<path d="M3330 8130 c-36 -36 -22 -102 25 -114 68 -17 114 64 68 117 -21 23
-68 22 -93 -3z"/>
<path d="M351 7517 c-13 -6 -38 -29 -55 -50 -27 -34 -31 -46 -31 -101 0 -53 4
-68 28 -99 36 -48 75 -67 134 -67 101 1 181 86 169 180 -8 57 -45 112 -89 133
-41 20 -122 22 -156 4z"/>
<path d="M7565 7498 c-79 -21 -162 -103 -184 -183 -48 -175 79 -345 259 -345
124 0 237 93 262 215 39 198 -139 364 -337 313z"/>
<path d="M3908 7339 c-63 -47 -69 -131 -13 -189 92 -96 250 20 194 142 -28 62
-127 88 -181 47z"/>
<path d="M1142 7108 c-13 -7 -21 -17 -18 -25 3 -8 1 -11 -4 -8 -6 4 -10 -6
-10 -23 0 -56 61 -81 100 -42 27 27 25 62 -5 88 -28 25 -31 25 -63 10z m21
-85 c-7 -2 -21 -2 -30 0 -10 3 -4 5 12 5 17 0 24 -2 18 -5z"/>
<path d="M8295 7101 c-11 -5 -32 -21 -47 -36 -23 -23 -28 -37 -28 -77 0 -81
47 -128 129 -128 51 0 106 48 116 101 18 95 -81 176 -170 140z"/>
<path d="M6664 6946 c-31 -31 -34 -40 -34 -90 0 -49 4 -59 31 -86 56 -53 125
-53 177 1 41 42 49 89 22 143 -24 50 -53 66 -116 66 -39 0 -51 -5 -80 -34z"/>
<path d="M4348 6740 c-120 -23 -147 -188 -42 -257 15 -10 48 -18 77 -19 45 -1
53 2 93 41 41 39 44 45 44 93 0 67 -28 112 -84 135 -23 9 -43 16 -46 16 -3 -1
-22 -5 -42 -9z"/>
<path d="M2495 6685 c-44 -45 -48 -100 -11 -150 51 -67 131 -71 185 -9 71 80
16 194 -93 194 -39 0 -51 -5 -81 -35z"/>
<path d="M7641 6582 c-46 -23 -74 -78 -66 -126 14 -74 104 -122 167 -90 42 22
52 33 65 70 21 60 -8 127 -64 150 -43 18 -61 18 -102 -4z"/>
<path d="M125 6546 c-66 -29 -95 -115 -59 -176 33 -54 107 -76 164 -47 32 16
70 73 70 104 0 44 -31 93 -71 113 -44 23 -63 24 -104 6z"/>
<path d="M8462 6459 c-71 -36 -110 -116 -93 -192 13 -57 35 -83 95 -112 44
-22 63 -26 95 -20 88 15 145 82 145 171 0 126 -131 210 -242 153z"/>
<path d="M2980 6403 c-54 -21 -30 -103 33 -115 27 -5 39 7 15 15 -7 2 -2 2 11
0 18 -3 22 0 18 11 -4 10 -1 13 9 9 19 -7 19 30 -1 60 -14 22 -54 32 -85 20z"/>
<path d="M1115 6344 c-20 -21 -22 -30 -13 -54 13 -38 33 -53 68 -53 32 0 70
34 70 63 0 10 -9 29 -21 44 -27 35 -72 35 -104 0z"/>
<path d="M4993 6283 c-33 -17 -63 -65 -63 -102 0 -43 32 -98 65 -110 98 -35
175 12 175 107 0 98 -87 150 -177 105z"/>
<path d="M5911 6194 c0 -11 3 -14 6 -6 3 7 2 16 -1 19 -3 4 -6 -2 -5 -13z"/>
<path d="M6016 6197 c3 -10 9 -15 12 -12 3 3 0 11 -7 18 -10 9 -11 8 -5 -6z"/>
<path d="M3895 6075 c-16 -8 -39 -29 -50 -45 -11 -16 -23 -30 -27 -30 -15 0
-8 -122 9 -157 41 -87 168 -117 249 -59 84 61 98 177 30 250 -17 19 -44 39
-59 45 -40 15 -117 13 -152 -4z"/>
<path d="M6000 5936 c-95 -50 -135 -114 -135 -221 1 -94 35 -154 119 -209 63
-41 211 -28 271 23 73 62 105 179 74 272 -18 53 -107 133 -162 147 -68 18
-117 14 -167 -12z"/>
<path d="M5130 5710 c-26 -26 -25 -60 1 -94 25 -31 57 -33 93 -5 50 40 21 119
-44 119 -17 0 -39 -9 -50 -20z"/>
<path d="M3584 5706 c-17 -8 -41 -27 -53 -42 -19 -24 -22 -38 -19 -83 4 -47
10 -59 39 -83 59 -49 161 -33 194 32 33 64 5 149 -60 176 -42 17 -61 17 -101
0z"/>
<path d="M8350 5702 c0 -12 19 -26 26 -19 2 2 -2 10 -11 17 -9 8 -15 8 -15 2z"/>
<path d="M275 5655 c-5 -2 -22 -6 -37 -9 -65 -15 -129 -103 -127 -178 1 -74
28 -126 88 -168 28 -19 48 -24 101 -24 57 -1 72 3 107 27 106 73 114 232 15
311 -39 32 -113 52 -147 41z"/>
<path d="M6766 5639 c-17 -13 -26 -30 -26 -49 0 -31 39 -70 70 -70 24 0 60 42
60 71 0 30 -9 43 -37 58 -30 15 -36 14 -67 -10z"/>
<path d="M8400 5530 c0 -5 5 -10 10 -10 6 0 10 5 10 10 0 6 -4 10 -10 10 -5 0
-10 -4 -10 -10z"/>
<path d="M4223 5328 c-12 -6 -27 -23 -33 -39 -10 -23 -9 -33 6 -58 15 -25 25
-31 54 -31 50 1 70 20 70 66 0 33 -5 43 -29 57 -33 19 -38 20 -68 5z"/>
<path d="M7936 5265 c-19 -14 -49 -65 -39 -65 3 0 12 8 19 18 13 16 13 16 14
-1 0 -10 -7 -20 -15 -23 -11 -5 -12 -10 -2 -25 8 -13 23 -19 47 -19 32 0 37 4
48 33 7 18 12 41 12 50 0 20 -16 23 -24 5 -3 -7 -3 -3 0 10 3 12 1 22 -4 22
-5 0 -17 -10 -26 -22 l-16 -23 6 28 c7 31 6 32 -20 12z m41 -61 c-3 -3 -12 -4
-19 -1 -8 3 -5 6 6 6 11 1 17 -2 13 -5z"/>
<path d="M5390 5246 c0 -2 8 -10 18 -17 15 -13 16 -12 3 4 -13 16 -21 21 -21
13z"/>
<path d="M5321 5185 c0 -15 25 -45 37 -45 6 0 14 5 17 11 4 6 0 9 -8 7 -9 -2
-23 6 -31 17 -9 11 -15 16 -15 10z"/>
<path d="M1726 5152 c-120 -84 -93 -261 46 -303 102 -32 211 51 212 161 2 136
-148 219 -258 142z"/>
<path d="M3260 5173 c-99 -37 -140 -163 -83 -251 70 -107 216 -107 286 0 54
82 22 200 -66 242 -34 15 -106 20 -137 9z"/>
<path d="M6918 4974 c-91 -47 -128 -149 -88 -241 43 -101 140 -145 240 -109
163 58 169 287 9 355 -62 27 -103 26 -161 -5z"/>
<path d="M8183 4948 c-26 -13 -53 -80 -34 -86 6 -2 11 -10 11 -18 0 -19 45
-28 83 -17 56 16 57 90 1 117 -19 9 -36 16 -37 15 -1 0 -12 -5 -24 -11z"/>
<path d="M2413 4926 c-27 -28 -29 -58 -8 -80 43 -43 105 -20 105 38 0 37 -12
51 -50 60 -18 5 -31 0 -47 -18z"/>
<path d="M3836 4828 c-9 -12 -16 -32 -16 -43 0 -29 40 -65 73 -65 48 0 77 79
41 114 -24 24 -80 20 -98 -6z"/>
<path d="M4438 4803 c7 -3 16 -2 19 1 4 3 -2 6 -13 5 -11 0 -14 -3 -6 -6z"/>
<path d="M758 4751 c-41 -36 -52 -76 -35 -128 23 -69 109 -103 176 -69 41 21
61 59 61 111 0 37 -6 52 -29 77 -24 26 -39 32 -83 36 -50 4 -58 2 -90 -27z"/>
<path d="M4271 4754 c0 -11 3 -14 6 -6 3 7 2 16 -1 19 -3 4 -6 -2 -5 -13z"/>
<path d="M4281 4709 c-1 -9 7 -23 17 -30 15 -12 16 -12 6 1 -6 8 -14 22 -17
30 -5 13 -6 12 -6 -1z"/>
<path d="M4451 4674 c0 -11 3 -14 6 -6 3 7 2 16 -1 19 -3 4 -6 -2 -5 -13z"/>
<path d="M3063 4640 c-45 -27 -66 -73 -60 -127 7 -64 54 -103 124 -103 133 0
172 173 53 235 -39 20 -79 19 -117 -5z"/>
<path d="M8389 4562 c-8 -3 -24 -13 -36 -24 -17 -16 -20 -25 -12 -50 11 -38
35 -57 75 -58 59 0 85 48 54 105 -12 22 -52 36 -81 27z"/>
<path d="M1662 4468 c-66 -10 -114 -45 -141 -102 -57 -116 6 -247 130 -275
120 -27 229 64 229 191 -1 120 -100 205 -218 186z"/>
<path d="M6358 4403 c6 -2 18 -2 25 0 6 3 1 5 -13 5 -14 0 -19 -2 -12 -5z"/>
<path d="M6312 4360 c0 -14 2 -19 5 -12 2 6 2 18 0 25 -3 6 -5 1 -5 -13z"/>
<path d="M6421 4344 c0 -11 3 -14 6 -6 3 7 2 16 -1 19 -3 4 -6 -2 -5 -13z"/>
<path d="M7263 4330 c-3 -11 -9 -17 -14 -15 -10 7 -29 -27 -29 -53 0 -22 36
-43 65 -38 16 2 19 11 20 54 0 35 -4 52 -12 52 -7 0 -10 -7 -7 -17 5 -14 4
-15 -4 -4 -6 8 -8 20 -5 28 3 7 2 13 -2 13 -4 0 -9 -9 -12 -20z m27 -80 c0 -5
-9 -10 -20 -10 -11 0 -20 5 -20 10 0 6 9 10 20 10 11 0 20 -4 20 -10z"/>
<path d="M6340 4310 c0 -5 5 -10 10 -10 6 0 10 5 10 10 0 6 -4 10 -10 10 -5 0
-10 -4 -10 -10z"/>
<path d="M2352 4274 c-85 -42 -121 -114 -112 -222 8 -98 107 -182 212 -182
158 1 258 149 201 300 -44 114 -183 163 -301 104z"/>
<path d="M7322 4280 c0 -14 2 -19 5 -12 2 6 2 18 0 25 -3 6 -5 1 -5 -13z"/>
<path d="M4136 4204 c-26 -25 -30 -60 -10 -93 14 -24 25 -31 49 -31 65 0 99
76 55 120 -24 24 -72 26 -94 4z"/>
<path d="M4752 4207 c-6 -6 -13 -24 -17 -39 -6 -22 -1 -33 24 -58 30 -30 31
-31 61 -15 50 26 60 81 21 112 -21 16 -76 16 -89 0z"/>
<path d="M5132 4200 c-30 -29 -28 -57 9 -91 29 -27 32 -28 60 -14 50 26 63 71
29 105 -26 26 -70 26 -98 0z"/>
<path d="M5560 4198 c-129 -67 -141 -248 -21 -333 37 -26 51 -30 109 -30 57 1
74 5 109 29 78 52 106 163 63 250 -46 93 -167 132 -260 84z"/>
<path d="M2929 4127 c-48 -32 -68 -91 -48 -143 27 -71 111 -104 178 -70 41 21
61 59 61 111 0 26 -7 57 -16 71 -37 56 -117 70 -175 31z"/>
<path d="M7479 4023 c-18 -4 -39 -44 -39 -72 0 -27 42 -61 77 -61 39 0 63 28
63 73 0 52 -40 77 -101 60z"/>
<path d="M8382 3992 c-73 -68 -39 -196 57 -217 46 -10 90 3 122 36 49 51 39
150 -20 196 -9 7 -41 13 -72 13 -49 0 -61 -4 -87 -28z"/>
<path d="M3945 3800 c-3 -5 -1 -10 4 -10 6 0 11 5 11 10 0 6 -2 10 -4 10 -3 0
-8 -4 -11 -10z"/>
<path d="M3997 3780 c-3 -11 -3 -20 -1 -20 2 0 8 9 14 20 6 11 7 20 2 20 -6 0
-12 -9 -15 -20z"/>
<path d="M4018 3758 c-25 -31 -23 -46 2 -18 11 13 20 27 20 32 0 12 -3 10 -22
-14z"/>
<path d="M7215 3760 c-40 -16 -68 -58 -73 -109 -4 -45 -1 -52 29 -85 45 -49
94 -61 147 -35 91 45 98 172 12 223 -30 17 -82 20 -115 6z"/>
<path d="M2916 3610 c-86 -76 -32 -220 82 -220 102 0 161 118 101 201 -42 59
-127 67 -183 19z"/>
<path d="M6394 3471 c-52 -26 -65 -39 -87 -84 -72 -141 6 -306 152 -324 84
-10 134 3 178 47 58 56 78 103 77 176 -1 50 -6 69 -30 105 -43 64 -97 98 -169
105 -54 5 -67 2 -121 -25z"/>
<path d="M3570 3473 c-31 -12 -50 -37 -50 -68 0 -41 27 -65 73 -65 41 0 67 27
67 72 0 25 -22 58 -40 58 -5 0 -14 2 -22 4 -7 3 -20 2 -28 -1z"/>
<path d="M8511 3325 c-105 -61 -139 -162 -87 -263 39 -76 82 -102 166 -102
122 0 200 74 200 191 0 106 -69 180 -180 193 -48 6 -61 3 -99 -19z"/>
<path d="M3134 3261 c-47 -28 -64 -59 -64 -113 0 -39 5 -52 34 -82 30 -32 39
-36 84 -36 43 0 57 5 86 30 64 57 61 142 -6 190 -48 35 -89 38 -134 11z"/>
<path d="M5066 3259 c-36 -29 -36 -80 1 -109 32 -25 69 -20 96 12 23 27 22 59
-4 92 -25 31 -57 33 -93 5z"/>
<path d="M4528 3133 c-37 -23 -51 -54 -50 -109 0 -49 18 -76 64 -100 56 -29
117 -12 155 45 27 40 29 71 8 115 -29 61 -118 86 -177 49z"/>
<path d="M8023 3130 c-43 -26 -67 -73 -60 -121 10 -75 63 -115 141 -107 66 8
106 54 106 123 0 50 -23 89 -64 109 -45 21 -84 20 -123 -4z"/>
<path d="M9179 3128 c-30 -26 -59 -78 -59 -106 0 -34 31 -83 70 -108 51 -34
111 -25 159 24 28 28 34 42 34 76 0 87 -35 123 -128 132 -42 4 -54 1 -76 -18z"/>
<path d="M9576 3064 c-18 -18 -18 -19 -2 -22 22 -5 29 2 24 24 -3 16 -4 16
-22 -2z"/>
<path d="M6028 3012 c-100 -61 -55 -232 61 -232 53 0 82 14 109 54 25 36 29
97 8 134 -31 57 -121 80 -178 44z"/>
<path d="M3894 2954 c-85 -42 -130 -141 -105 -232 16 -57 76 -117 133 -133 63
-17 142 1 185 42 46 45 63 88 63 156 0 50 -5 65 -30 100 -55 74 -169 105 -246
67z"/>
<path d="M6703 2890 c-49 -20 -68 -51 -68 -113 0 -54 3 -61 33 -88 66 -59 174
-29 202 56 10 31 9 41 -11 81 -30 63 -93 89 -156 64z"/>
<path d="M7305 2846 c-92 -43 -130 -107 -123 -211 5 -78 41 -137 106 -173 72
-40 193 -31 243 18 33 32 67 86 74 118 4 18 4 59 0 91 -6 51 -12 64 -48 101
-78 79 -163 98 -252 56z"/>
<path d="M4986 2730 c-37 -12 -94 -66 -112 -107 -8 -18 -14 -56 -14 -86 0
-150 178 -238 303 -151 79 55 107 155 68 239 -43 93 -142 135 -245 105z"/>
<path d="M8601 2694 c-27 -35 -27 -65 2 -92 50 -47 117 -15 117 55 0 61 -81
86 -119 37z"/>
<path d="M7903 2657 c-86 -49 -88 -178 -2 -223 54 -27 121 -12 163 37 25 30
26 105 1 142 -33 52 -111 73 -162 44z"/>
<path d="M9106 2573 c-15 -4 -16 -7 -5 -13 7 -5 10 -12 6 -16 -3 -4 -13 -1
-22 6 -13 11 -15 7 -15 -30 0 -37 2 -41 15 -30 9 7 19 10 22 6 4 -4 1 -11 -7
-16 -16 -10 -15 -10 33 -14 6 -1 11 4 10 10 -1 7 6 10 17 7 17 -5 20 0 20 32
0 54 -22 71 -74 58z m41 -45 c-3 -7 -5 -2 -5 12 0 14 2 19 5 13 2 -7 2 -19 0
-25z"/>
<path d="M9608 2473 c7 -3 16 -2 19 1 4 3 -2 6 -13 5 -11 0 -14 -3 -6 -6z"/>
<path d="M8850 2333 c-8 -3 -22 -13 -30 -22 -64 -70 -66 -161 -4 -217 64 -59
148 -58 208 2 33 33 36 41 36 93 0 72 -37 136 -83 145 -36 7 -106 7 -127 -1z"/>
<path d="M7675 2263 c-77 -14 -118 -137 -66 -197 77 -88 221 -38 221 77 0 77
-75 134 -155 120z"/>
<path d="M9728 2252 c-55 -33 -28 -123 37 -122 36 1 63 33 66 80 3 40 1 45
-21 51 -40 11 -53 10 -82 -9z"/>
<path d="M8485 2124 c-50 -26 -64 -49 -66 -102 -3 -64 26 -107 81 -123 85 -26
163 39 154 128 -5 54 -14 68 -65 94 -46 23 -65 24 -104 3z"/>
<path d="M9257 2062 c-38 -42 -2 -131 48 -118 11 3 27 6 35 6 14 0 40 42 40
65 0 6 -6 23 -12 38 -11 23 -19 27 -54 27 -27 0 -47 -6 -57 -18z"/>
<path d="M10080 1960 c0 -29 4 -40 15 -40 11 0 15 11 15 40 0 29 -4 40 -15 40
-11 0 -15 -11 -15 -40z"/>
<path d="M8031 1833 c-42 -21 -76 -89 -66 -134 4 -17 22 -46 41 -65 29 -28 42
-34 79 -34 38 0 50 6 86 40 40 38 41 41 37 90 -6 56 -26 86 -75 106 -42 18
-60 17 -102 -3z"/>
<path d="M10101 1763 c0 -50 3 -83 9 -83 11 0 12 43 0 115 -7 47 -7 45 -9 -32z"/>
<path d="M9185 1783 c-65 -17 -125 -106 -125 -185 0 -80 37 -141 108 -177 186
-95 371 140 235 299 -19 22 -51 47 -70 55 -34 14 -107 18 -148 8z"/>
<path d="M8424 1585 c-105 -46 -98 -199 10 -235 109 -36 207 111 130 194 -24
26 -82 57 -101 55 -4 0 -22 -7 -39 -14z"/>
<path d="M10058 1584 c-48 -26 -71 -69 -65 -123 11 -90 89 -140 175 -112 49
17 72 51 79 117 6 54 6 55 -37 94 -37 34 -50 40 -84 39 -23 -1 -53 -8 -68 -15z"/>
<path d="M9318 999 c-109 -65 -60 -230 68 -229 74 1 137 86 114 156 -6 19 -16
34 -21 34 -5 0 -9 6 -9 13 0 18 -33 36 -77 42 -28 4 -47 0 -75 -16z"/>
<path d="M8560 959 c-75 -45 -110 -107 -110 -196 0 -228 318 -294 411 -84 20
46 26 145 9 156 -5 3 -10 14 -10 24 0 21 -63 82 -109 105 -45 24 -148 21 -191
-5z"/>
<path d="M9578 265 c-56 -31 -83 -110 -55 -165 18 -35 74 -70 114 -70 62 0
123 63 123 127 0 37 -34 91 -64 103 -48 18 -91 20 -118 5z"/>
<path d="M8865 208 c-11 -6 -31 -23 -44 -36 -30 -32 -33 -104 -7 -144 18 -27
21 -28 106 -28 l88 0 16 34 c20 42 20 79 1 116 -31 59 -108 88 -160 58z"/>
</g>
</svg>
