<?xml version="1.0" standalone="no"?>
<!DOCTYPE svg PUBLIC "-//W3C//DTD SVG 20010904//EN"
 "http://www.w3.org/TR/2001/REC-SVG-20010904/DTD/svg10.dtd">
<svg version="1.0" xmlns="http://www.w3.org/2000/svg"
 width="957.000000pt" height="200.000000pt" viewBox="0 0 957.000000 200.000000"
 preserveAspectRatio="xMidYMid meet">

<g transform="translate(0.000000,200.000000) scale(0.100000,-0.100000)"
fill="#000000" stroke="none">
<path d="M2954 1871 c-44 -11 -54 -19 -70 -57 -29 -69 -11 -179 34 -202 31
-17 106 -21 152 -9 36 10 48 19 62 47 35 68 18 179 -31 204 -35 18 -108 27
-147 17z"/>
<path d="M2178 1411 c-31 -10 -77 -30 -102 -45 l-45 -26 -16 23 c-8 13 -27 29
-41 35 -27 13 -195 16 -281 6 l-53 -7 0 -88 0 -89 65 0 65 0 0 -380 0 -380
130 0 130 0 0 359 0 359 23 6 c48 14 193 18 235 7 76 -21 76 -23 82 -373 l5
-308 28 -27 c27 -28 29 -28 150 -28 67 0 139 4 160 8 l37 8 0 84 0 85 -59 0
-60 0 -3 293 c-3 272 -4 295 -24 337 -31 66 -72 110 -129 136 -65 31 -209 33
-297 5z"/>
<path d="M533 1403 l-33 -4 0 -90 0 -89 60 0 60 0 0 -278 c0 -309 7 -355 61
-417 17 -19 56 -47 87 -62 51 -25 68 -27 164 -28 l106 0 90 46 90 46 11 -24
c20 -44 72 -56 207 -50 66 4 128 9 137 13 14 5 17 21 17 90 l0 84 -55 0 -55 0
0 318 c-1 174 -5 337 -9 361 -14 71 -36 85 -143 90 -50 1 -124 0 -164 -4 l-74
-7 0 -89 0 -89 60 0 60 0 0 -269 0 -270 -57 -7 c-138 -19 -237 -2 -259 43 -5
10 -11 157 -14 326 l-5 309 -33 29 c-32 29 -33 29 -155 27 -67 0 -137 -3 -154
-5z"/>
<path d="M2848 1403 l-48 -4 0 -90 0 -89 60 0 60 0 0 -385 0 -385 135 0 136 0
-3 451 -3 451 -33 29 c-32 29 -34 29 -145 27 -61 -1 -133 -3 -159 -5z"/>
<path d="M3350 1315 l0 -95 55 0 55 0 0 -385 0 -385 135 0 135 0 0 135 0 135
68 0 67 0 140 -257 c89 -161 151 -264 168 -277 33 -24 130 -32 263 -21 l85 7
-3 86 -3 87 -74 5 -75 5 -118 204 c-65 112 -117 204 -116 205 2 1 22 11 46 21
58 25 125 102 143 162 8 26 14 85 13 130 -2 138 -58 223 -189 284 -87 41 -164
49 -497 49 l-298 0 0 -95z m644 -110 c57 -27 78 -67 74 -140 -3 -43 -10 -70
-27 -93 -38 -53 -73 -66 -198 -70 l-113 -4 0 167 0 168 113 -5 c80 -4 124 -10
151 -23z"/>
<path d="M4790 1225 l0 -185 115 0 c108 0 115 1 115 20 0 19 -7 20 -90 20
l-90 0 0 165 0 165 -25 0 -25 0 0 -185z"/>
<path d="M5131 1230 c-39 -98 -71 -182 -71 -185 0 -3 11 -5 24 -5 18 0 27 9
40 45 l18 45 83 0 83 0 14 -42 c12 -35 20 -44 43 -46 23 -3 27 -1 21 15 -4 10
-37 93 -73 186 -90 227 -88 227 -182 -13z m127 27 l30 -77 -64 0 -64 0 22 58
c11 31 25 68 30 81 5 13 10 22 13 20 2 -3 17 -39 33 -82z"/>
<path d="M5590 1270 c0 -157 9 -189 60 -215 38 -20 123 -19 161 1 48 24 59 65
59 219 l0 135 -25 0 -25 0 0 -140 c0 -136 -1 -142 -25 -165 -18 -19 -35 -25
-65 -25 -30 0 -47 6 -65 25 -24 23 -25 29 -25 165 l0 140 -25 0 -25 0 0 -140z"/>
<path d="M5960 1225 l0 -185 25 0 25 0 0 143 c1 165 -9 167 107 -20 68 -111
79 -123 104 -123 l29 0 0 185 0 185 -25 0 -24 0 -3 -142 -3 -143 -88 143 c-81
130 -91 142 -118 142 l-29 0 0 -185z"/>
<path d="M6350 1225 l0 -185 25 0 25 0 0 185 0 185 -25 0 -25 0 0 -185z"/>
<path d="M6470 1400 c0 -7 89 -252 125 -343 5 -12 16 -17 33 -15 24 3 32 18
94 183 37 99 68 181 68 183 0 1 -11 2 -24 2 -13 0 -27 -8 -31 -17 -4 -10 -27
-74 -52 -143 -25 -69 -49 -129 -53 -133 -7 -8 -29 46 -91 226 -20 56 -28 67
-46 67 -13 0 -23 -4 -23 -10z"/>
<path d="M6857 1403 c-4 -3 -7 -87 -7 -185 l0 -178 120 0 c113 0 120 1 120 20
0 18 -8 20 -92 22 l-93 3 0 60 0 60 73 3 c63 3 72 5 72 22 0 17 -9 19 -72 22
l-73 3 -3 53 -3 52 95 0 c96 0 96 0 96 25 l0 25 -113 0 c-63 0 -117 -3 -120
-7z"/>
<path d="M7180 1225 c0 -177 1 -185 20 -185 17 0 19 8 22 73 l3 72 57 3 c68 4
98 -18 98 -70 0 -56 10 -78 34 -78 21 0 22 4 18 58 -2 35 -11 68 -24 85 l-20
29 20 21 c30 32 36 69 18 111 -20 49 -63 66 -166 66 l-80 0 0 -185z m188 122
c23 -27 24 -62 1 -90 -20 -26 -26 -28 -83 -25 l-61 3 -3 63 -3 62 69 0 c44 0
73 -5 80 -13z"/>
<path d="M7584 1400 c-38 -15 -66 -61 -60 -99 7 -47 28 -66 94 -86 93 -29 112
-42 112 -75 0 -60 -97 -84 -145 -35 -14 13 -25 31 -25 40 0 9 -9 15 -25 15
-14 0 -25 -5 -25 -11 0 -26 32 -76 59 -92 36 -21 122 -22 161 -2 37 19 50 43
50 94 0 50 -27 73 -121 101 -44 13 -73 28 -79 41 -39 71 98 109 139 38 15 -27
44 -38 55 -21 9 15 -24 68 -53 85 -31 18 -101 22 -137 7z"/>
<path d="M7860 1225 l0 -185 25 0 25 0 0 185 0 185 -25 0 -25 0 0 -185z"/>
<path d="M8010 1226 l0 -186 78 0 c122 0 191 44 213 136 12 52 2 117 -25 157
-32 49 -87 71 -183 75 l-83 4 0 -186z m180 119 c40 -21 64 -69 63 -129 -1 -81
-62 -136 -150 -136 l-43 0 0 140 0 140 50 0 c28 0 64 -7 80 -15z"/>
<path d="M8485 1400 c-4 -6 -38 -89 -75 -183 -52 -133 -65 -173 -53 -175 27
-7 42 7 54 48 l12 41 85 -3 85 -3 16 -42 c13 -36 19 -43 42 -43 l27 0 -72 183
c-59 150 -76 183 -93 185 -12 2 -24 -2 -28 -8z m55 -132 c13 -35 25 -69 27
-75 4 -10 -11 -13 -56 -13 -34 0 -61 3 -61 7 0 16 54 143 60 143 4 0 18 -28
30 -62z"/>
<path d="M8740 1225 l0 -185 78 0 c128 0 202 53 217 154 14 92 -39 182 -120
205 -22 6 -70 11 -107 11 l-68 0 0 -185z m187 115 c42 -25 56 -53 57 -117 1
-86 -60 -143 -151 -143 l-43 0 0 140 0 140 53 0 c34 0 63 -7 84 -20z"/>
<path d="M4790 640 l0 -180 120 0 c113 0 120 1 120 20 0 19 -7 20 -95 20 l-95
0 0 60 0 60 75 0 c73 0 75 1 75 25 0 24 -2 25 -75 25 l-75 0 0 55 0 55 90 0
c83 0 90 1 90 20 0 19 -7 20 -115 20 l-115 0 0 -180z"/>
<path d="M5110 641 l0 -181 25 0 24 0 3 142 3 141 88 -141 c81 -130 91 -142
118 -142 l29 0 0 180 0 180 -25 0 -24 0 -3 -139 -3 -140 -85 137 c-79 126 -88
137 -118 140 l-32 3 0 -180z"/>
<path d="M5640 640 l0 -180 25 0 25 0 0 180 0 180 -25 0 -25 0 0 -180z"/>
<path d="M5790 640 l0 -180 25 0 24 0 3 138 3 137 85 -137 c81 -130 87 -137
118 -138 l32 0 0 180 0 180 -25 0 -24 0 -3 -142 -3 -143 -89 143 c-81 128 -92
142 -118 142 l-28 0 0 -180z"/>
<path d="M6140 800 c0 -18 7 -20 60 -20 l60 0 0 -160 0 -160 25 0 25 0 0 160
0 160 60 0 c53 0 60 2 60 20 0 19 -7 20 -145 20 -138 0 -145 -1 -145 -20z"/>
<path d="M6490 640 l0 -180 120 0 c113 0 120 1 120 20 0 19 -7 20 -95 20 l-95
0 0 60 0 60 75 0 c73 0 75 1 75 25 0 24 -2 25 -75 25 l-75 0 0 55 0 55 90 0
c83 0 90 1 90 20 0 19 -7 20 -115 20 l-115 0 0 -180z"/>
<path d="M6810 641 l0 -181 25 0 c24 0 25 2 25 70 l0 70 58 0 c78 0 94 -13
100 -84 4 -52 6 -56 30 -56 24 0 25 1 18 63 -5 41 -14 69 -27 83 l-20 22 27
27 c23 23 26 32 21 72 -8 75 -29 87 -152 91 l-105 4 0 -181z m188 123 c27 -18
30 -69 5 -96 -12 -14 -31 -18 -80 -18 l-63 0 0 65 0 65 58 0 c36 0 66 -6 80
-16z"/>
<path d="M7170 640 l0 -180 25 0 25 0 0 135 c0 74 4 135 9 135 4 0 46 -61 92
-135 80 -128 86 -135 117 -135 l32 0 0 180 0 180 -25 0 -25 0 0 -141 c0 -77
-4 -138 -8 -135 -4 2 -46 66 -92 140 -81 130 -86 136 -117 136 l-33 0 0 -180z"/>
<path d="M7560 640 l0 -180 120 0 c113 0 120 1 120 20 0 19 -7 20 -95 20 l-95
0 0 60 0 60 75 0 c73 0 75 1 75 25 0 24 -2 25 -76 25 l-75 0 3 53 3 52 93 3
c84 2 92 4 92 22 0 19 -7 20 -120 20 l-120 0 0 -180z"/>
<path d="M7850 800 c0 -18 7 -20 60 -20 l60 0 0 -160 0 -160 25 0 25 0 0 160
0 160 60 0 c53 0 60 2 60 20 0 19 -7 20 -145 20 -138 0 -145 -1 -145 -20z"/>
</g>
</svg>
